<?xml version="1.0" standalone="no"?>
<!DOCTYPE svg PUBLIC "-//W3C//DTD SVG 20010904//EN"
 "http://www.w3.org/TR/2001/REC-SVG-20010904/DTD/svg10.dtd">
<svg version="1.0" xmlns="http://www.w3.org/2000/svg"
 width="700.000000pt" height="700.000000pt" viewBox="0 0 700.000000 700.000000"
 preserveAspectRatio="xMidYMid meet">
<metadata>
Created by potrace 1.14, written by Peter Selinger 2001-2017
</metadata>
<g transform="translate(0.000000,700.000000) scale(0.100000,-0.100000)"
fill="#000000" stroke="none">
<path d="M3405 6987 c-45 -11 -124 -59 -171 -103 -17 -16 -71 -65 -119 -109
-49 -44 -103 -93 -121 -110 -17 -16 -67 -61 -110 -100 -43 -38 -90 -81 -104
-95 -15 -14 -49 -45 -76 -69 -27 -25 -94 -85 -148 -135 -54 -50 -107 -98 -116
-106 -14 -12 -159 -145 -214 -195 -6 -6 -53 -48 -105 -95 -52 -47 -104 -94
-116 -105 -44 -42 -232 -213 -356 -325 -45 -41 -112 -102 -148 -136 -36 -33
-93 -85 -126 -114 -85 -77 -121 -109 -170 -155 -23 -22 -60 -56 -81 -75 -35
-32 -217 -196 -304 -276 -19 -17 -48 -44 -65 -59 -16 -15 -70 -64 -119 -108
-49 -45 -98 -90 -110 -100 -11 -10 -63 -58 -116 -106 -52 -48 -117 -108 -144
-132 -173 -154 -231 -222 -250 -289 -52 -195 50 -393 233 -450 56 -18 92 -20
337 -20 l274 0 2 -1463 3 -1464 30 -48 c21 -34 45 -56 79 -74 l48 -25 882 0
c484 -1 902 3 928 8 56 10 111 53 140 109 l22 42 0 892 c0 603 4 893 11 894
13 1 954 1 980 0 21 -1 21 -3 21 -893 1 -884 1 -893 21 -933 24 -47 54 -76
103 -101 33 -16 90 -17 941 -18 l907 0 48 25 c34 18 58 40 79 74 l30 48 3
1464 2 1463 273 1 c149 1 275 1 278 1 18 -2 102 30 138 52 62 39 100 84 133
154 38 79 46 157 24 240 -27 106 -38 118 -406 452 -69 62 -162 147 -207 189
l-83 75 0 913 c0 802 -2 918 -15 951 -20 47 -50 79 -100 105 -40 21 -48 21
-784 22 -520 0 -757 -3 -788 -11 -53 -13 -118 -72 -134 -122 -6 -19 -12 -68
-13 -108 0 -41 -2 -74 -4 -74 -1 0 -55 48 -120 108 -64 59 -122 112 -128 117
-38 34 -191 174 -214 195 -15 14 -65 59 -111 101 -46 42 -102 93 -124 114 -65
60 -155 98 -239 100 -39 1 -89 -2 -111 -8z m220 -532 c54 -49 109 -99 121
-110 62 -56 190 -173 214 -195 93 -86 208 -191 226 -207 12 -10 63 -56 114
-103 52 -47 116 -106 144 -131 122 -111 153 -128 229 -123 55 3 126 40 155 82
33 46 40 92 40 292 1 111 5 196 11 199 5 3 231 6 503 6 l493 -1 5 -869 5 -870
22 -36 c12 -19 53 -63 91 -96 37 -34 82 -74 99 -90 47 -43 214 -196 233 -213
9 -8 52 -46 94 -85 l77 -70 -320 -5 -319 -5 -43 -30 c-25 -18 -53 -50 -67 -77
l-24 -47 -1 -1458 0 -1458 -649 1 c-357 1 -652 4 -655 8 -3 3 -6 407 -7 898
-1 992 4 920 -67 988 -60 57 -47 56 -859 55 -650 -1 -750 -3 -781 -17 -45 -19
-81 -53 -105 -98 -18 -34 -19 -73 -21 -928 -1 -492 -4 -896 -7 -899 -4 -4
-1098 -7 -1272 -4 l-32 1 -1 1453 c0 1041 -3 1462 -11 1483 -24 63 -89 120
-150 131 -8 1 -150 3 -315 3 l-300 1 55 50 c30 28 93 85 140 127 46 42 91 84
100 92 9 8 38 35 66 59 44 40 223 203 264 241 16 15 204 185 226 205 6 6 36
33 65 60 30 28 101 93 159 145 58 52 128 116 155 142 28 25 61 56 75 68 14 12
45 40 71 63 25 23 92 85 148 137 57 52 113 103 125 113 12 10 61 55 110 100
49 45 97 89 107 98 10 9 62 56 116 105 138 127 135 124 215 196 40 36 87 79
104 94 16 16 75 70 129 119 54 50 124 113 154 141 31 28 110 100 176 160 66
60 138 125 160 146 83 76 86 78 100 65 6 -7 56 -52 110 -102z"/>
</g>
</svg>
